<svg width="210" height="80" viewBox="0 0 210 80" fill="none" xmlns="http://www.w3.org/2000/svg">
<g id="logo">
<path id="Polygon 1" d="M35.7574 4.24264C38.1005 1.89949 41.8995 1.8995 44.2426 4.24264L75.7574 35.7574C78.1005 38.1005 78.1005 41.8995 75.7574 44.2426L44.2426 75.7574C41.8995 78.1005 38.1005 78.1005 35.7574 75.7574L4.24264 44.2426C1.89949 41.8995 1.8995 38.1005 4.24264 35.7574L35.7574 4.24264Z" fill="#FC377E"/>
<g id="Studio Gold">
<path d="M88.5285 27.6001H93.3285V50.0001H88.5285V48.4961C87.3978 49.7975 85.8085 50.4481 83.7605 50.4481C81.6485 50.4481 79.8458 49.6375 78.3525 48.0161C76.8592 46.3735 76.1125 44.3681 76.1125 42.0001C76.1125 39.6321 76.8592 37.6375 78.3525 36.0161C79.8458 34.3735 81.6485 33.5521 83.7605 33.5521C85.8085 33.5521 87.3978 34.2028 88.5285 35.5041V27.6001ZM81.9685 44.8481C82.6725 45.5521 83.5898 45.9041 84.7205 45.9041C85.8512 45.9041 86.7685 45.5521 87.4725 44.8481C88.1765 44.1441 88.5285 43.1948 88.5285 42.0001C88.5285 40.8055 88.1765 39.8561 87.4725 39.1521C86.7685 38.4481 85.8512 38.0961 84.7205 38.0961C83.5898 38.0961 82.6725 38.4481 81.9685 39.1521C81.2645 39.8561 80.9125 40.8055 80.9125 42.0001C80.9125 43.1948 81.2645 44.1441 81.9685 44.8481Z" fill="#2F327D"/>
<path d="M102.546 31.7601C101.991 32.3148 101.319 32.5921 100.53 32.5921C99.7407 32.5921 99.058 32.3148 98.482 31.7601C97.9273 31.1841 97.65 30.5015 97.65 29.7121C97.65 28.9228 97.9273 28.2508 98.482 27.6961C99.058 27.1201 99.7407 26.8321 100.53 26.8321C101.319 26.8321 101.991 27.1201 102.546 27.6961C103.122 28.2508 103.41 28.9228 103.41 29.7121C103.41 30.5015 103.122 31.1841 102.546 31.7601ZM98.13 50.0001V34.0001H102.93V50.0001H98.13Z" fill="#2F327D"/>
<path d="M121.418 48.0161C119.776 49.6375 117.77 50.4481 115.402 50.4481C113.034 50.4481 111.029 49.6375 109.386 48.0161C107.744 46.3735 106.922 44.3681 106.922 42.0001C106.922 39.6321 107.744 37.6375 109.386 36.0161C111.029 34.3735 113.034 33.5521 115.402 33.5521C117.77 33.5521 119.776 34.3735 121.418 36.0161C123.061 37.6375 123.882 39.6321 123.882 42.0001C123.882 44.3681 123.061 46.3735 121.418 48.0161ZM112.778 44.7201C113.482 45.4241 114.357 45.7761 115.402 45.7761C116.448 45.7761 117.322 45.4241 118.026 44.7201C118.73 44.0161 119.082 43.1095 119.082 42.0001C119.082 40.8908 118.73 39.9841 118.026 39.2801C117.322 38.5761 116.448 38.2241 115.402 38.2241C114.357 38.2241 113.482 38.5761 112.778 39.2801C112.074 39.9841 111.722 40.8908 111.722 42.0001C111.722 43.1095 112.074 44.0161 112.778 44.7201Z" fill="#2F327D"/>
<path d="M159.493 37.5201V39.4401C159.493 42.7895 158.448 45.4668 156.357 47.4721C154.288 49.4561 151.653 50.4481 148.453 50.4481C144.976 50.4481 142.085 49.3281 139.781 47.0881C137.499 44.8481 136.357 42.0961 136.357 38.8321C136.357 35.5681 137.488 32.8055 139.749 30.5441C142.032 28.2828 144.816 27.1521 148.101 27.1521C150.192 27.1521 152.101 27.6215 153.829 28.5601C155.579 29.4988 156.933 30.7361 157.893 32.2721L153.541 34.7681C153.051 34.0001 152.315 33.3708 151.333 32.8801C150.373 32.3895 149.285 32.1441 148.069 32.1441C146.171 32.1441 144.592 32.7735 143.333 34.0321C142.096 35.2908 141.477 36.9015 141.477 38.8641C141.477 40.8055 142.117 42.3948 143.397 43.6321C144.677 44.8481 146.384 45.4561 148.517 45.4561C151.483 45.4561 153.392 44.3041 154.245 42.0001H148.261V37.5201H159.493Z" fill="#2F327D"/>
<path d="M177.196 48.0161C175.553 49.6375 173.548 50.4481 171.18 50.4481C168.812 50.4481 166.807 49.6375 165.164 48.0161C163.521 46.3735 162.7 44.3681 162.7 42.0001C162.7 39.6321 163.521 37.6375 165.164 36.0161C166.807 34.3735 168.812 33.5521 171.18 33.5521C173.548 33.5521 175.553 34.3735 177.196 36.0161C178.839 37.6375 179.66 39.6321 179.66 42.0001C179.66 44.3681 178.839 46.3735 177.196 48.0161ZM168.556 44.7201C169.26 45.4241 170.135 45.7761 171.18 45.7761C172.225 45.7761 173.1 45.4241 173.804 44.7201C174.508 44.0161 174.86 43.1095 174.86 42.0001C174.86 40.8908 174.508 39.9841 173.804 39.2801C173.1 38.5761 172.225 38.2241 171.18 38.2241C170.135 38.2241 169.26 38.5761 168.556 39.2801C167.852 39.9841 167.5 40.8908 167.5 42.0001C167.5 43.1095 167.852 44.0161 168.556 44.7201Z" fill="#2F327D"/>
<path d="M183.655 50.0001V26.6401H188.455V50.0001H183.655Z" fill="#2F327D"/>
<path d="M204.863 27.6001H209.663V50.0001H204.863V48.4961C203.733 49.7975 202.143 50.4481 200.095 50.4481C197.983 50.4481 196.181 49.6375 194.687 48.0161C193.194 46.3735 192.447 44.3681 192.447 42.0001C192.447 39.6321 193.194 37.6375 194.687 36.0161C196.181 34.3735 197.983 33.5521 200.095 33.5521C202.143 33.5521 203.733 34.2028 204.863 35.5041V27.6001ZM198.303 44.8481C199.007 45.5521 199.925 45.9041 201.055 45.9041C202.186 45.9041 203.103 45.5521 203.807 44.8481C204.511 44.1441 204.863 43.1948 204.863 42.0001C204.863 40.8055 204.511 39.8561 203.807 39.1521C203.103 38.4481 202.186 38.0961 201.055 38.0961C199.925 38.0961 199.007 38.4481 198.303 39.1521C197.599 39.8561 197.247 40.8055 197.247 42.0001C197.247 43.1948 197.599 44.1441 198.303 44.8481Z" fill="#2F327D"/>
</g>
<g id="Studio Gold_2">
<path d="M31.76 50.4483C29.4773 50.4483 27.568 49.9577 26.032 48.9763C24.5173 47.9737 23.44 46.619 22.8 44.9123L27.216 42.3523C28.112 44.4217 29.68 45.4563 31.92 45.4563C33.9467 45.4563 34.96 44.8483 34.96 43.6323C34.96 42.971 34.6293 42.459 33.968 42.0963C33.328 41.7123 32.112 41.275 30.32 40.7843C29.3813 40.5283 28.56 40.2403 27.856 39.9203C27.152 39.6003 26.4587 39.1843 25.776 38.6723C25.1147 38.139 24.6027 37.4777 24.24 36.6883C23.8987 35.899 23.728 34.9923 23.728 33.9683C23.728 31.899 24.464 30.2457 25.936 29.0083C27.4293 27.771 29.2 27.1523 31.248 27.1523C33.0827 27.1523 34.704 27.5897 36.112 28.4643C37.52 29.3177 38.6293 30.5657 39.44 32.2083L35.12 34.7363C34.7147 33.883 34.2133 33.243 33.616 32.8163C33.0187 32.3683 32.2293 32.1443 31.248 32.1443C30.48 32.1443 29.8827 32.315 29.456 32.6563C29.0507 32.9763 28.848 33.371 28.848 33.8403C28.848 34.395 29.104 34.875 29.616 35.2803C30.1493 35.6857 31.2373 36.1337 32.88 36.6243C33.776 36.9017 34.4693 37.1257 34.96 37.2963C35.4507 37.467 36.0693 37.755 36.816 38.1603C37.584 38.5443 38.16 38.9603 38.544 39.4083C38.9493 39.835 39.3013 40.411 39.6 41.1363C39.92 41.8403 40.08 42.651 40.08 43.5683C40.08 45.7017 39.312 47.387 37.776 48.6243C36.24 49.8403 34.2347 50.4483 31.76 50.4483Z" fill="white"/>
<path d="M52.666 38.6083H49.37V44.2723C49.37 44.9123 49.626 45.3177 50.138 45.4883C50.65 45.659 51.4927 45.7123 52.666 45.6483V50.0003C49.6153 50.3203 47.5033 50.0323 46.33 49.1363C45.1567 48.219 44.57 46.5977 44.57 44.2723V38.6083H42.01V34.0003H44.57V30.9603L49.37 29.5203V34.0003H52.666V38.6083Z" fill="white"/>
<path d="M67.3122 34.0003H72.1122V50.0003H67.3122V48.4963C66.3522 49.7977 64.8269 50.4483 62.7362 50.4483C61.0296 50.4483 59.6002 49.8617 58.4482 48.6883C57.3176 47.515 56.7522 45.8937 56.7522 43.8243V34.0003H61.5522V43.1203C61.5522 44.059 61.8082 44.7843 62.3202 45.2963C62.8536 45.787 63.5256 46.0323 64.3362 46.0323C65.2536 46.0323 65.9789 45.755 66.5122 45.2003C67.0456 44.6457 67.3122 43.8243 67.3122 42.7363V34.0003Z" fill="white"/>
</g>
</g>
</svg>
